<mxfile host="app.diagrams.net" modified="2023-02-05T07:21:47.530Z" agent="5.0 (Macintosh)" etag="SDP8hFfJc6w03x1RS9E7" version="20.8.13" type="github">
  <diagram name="Страница 1" id="BEI8x9D5pZdLKnZIfFn_">
    <mxGraphModel dx="1427" dy="669" grid="1" gridSize="10" guides="1" tooltips="1" connect="1" arrows="1" fold="1" page="1" pageScale="1" pageWidth="827" pageHeight="1169" math="0" shadow="0">
      <root>
        <mxCell id="0" />
        <mxCell id="1" parent="0" />
        <mxCell id="DKydumOuF1altvoykTei-2" value="Блок данных SMPP PDU" style="rounded=0;whiteSpace=wrap;html=1;" vertex="1" parent="1">
          <mxGeometry x="160" y="40" width="520" height="40" as="geometry" />
        </mxCell>
        <mxCell id="DKydumOuF1altvoykTei-3" value="command length" style="rounded=0;whiteSpace=wrap;html=1;" vertex="1" parent="1">
          <mxGeometry x="160" y="120" width="80" height="40" as="geometry" />
        </mxCell>
        <mxCell id="DKydumOuF1altvoykTei-4" value="sequence number" style="rounded=0;whiteSpace=wrap;html=1;" vertex="1" parent="1">
          <mxGeometry x="400" y="120" width="80" height="40" as="geometry" />
        </mxCell>
        <mxCell id="DKydumOuF1altvoykTei-5" value="command status" style="rounded=0;whiteSpace=wrap;html=1;" vertex="1" parent="1">
          <mxGeometry x="320" y="120" width="80" height="40" as="geometry" />
        </mxCell>
        <mxCell id="DKydumOuF1altvoykTei-6" value="command id" style="rounded=0;whiteSpace=wrap;html=1;" vertex="1" parent="1">
          <mxGeometry x="240" y="120" width="80" height="40" as="geometry" />
        </mxCell>
        <mxCell id="DKydumOuF1altvoykTei-7" value="Заголовок PDU Header" style="rounded=0;whiteSpace=wrap;html=1;" vertex="1" parent="1">
          <mxGeometry x="160" y="80" width="320" height="40" as="geometry" />
        </mxCell>
        <mxCell id="DKydumOuF1altvoykTei-8" value="Тело сообщения PDU Body" style="rounded=0;whiteSpace=wrap;html=1;" vertex="1" parent="1">
          <mxGeometry x="480" y="80" width="200" height="40" as="geometry" />
        </mxCell>
        <mxCell id="DKydumOuF1altvoykTei-9" value="Тело сообщения PDU Body" style="rounded=0;whiteSpace=wrap;html=1;" vertex="1" parent="1">
          <mxGeometry x="480" y="120" width="200" height="40" as="geometry" />
        </mxCell>
        <mxCell id="DKydumOuF1altvoykTei-10" value="Длина всего сообщения = command length " style="rounded=0;whiteSpace=wrap;html=1;" vertex="1" parent="1">
          <mxGeometry x="160" y="160" width="520" height="40" as="geometry" />
        </mxCell>
      </root>
    </mxGraphModel>
  </diagram>
</mxfile>
